<svg version="1" xmlns="http://www.w3.org/2000/svg" width="693.333" height="693.333" viewBox="0 0 520.000000 520.000000"><path d="M137 258.5V331h24.3c35.5 0 46.2-1.6 61.6-9.2 14.9-7.3 26.8-21.5 32.9-39.3 2.5-7.4 2.7-9.2 2.6-24.5 0-15.2-.2-17.1-2.7-24.5-7.2-21.7-23.9-37.5-45.7-43.4-11.8-3.2-22.6-4.1-48.7-4.1H137v72.5zm63-53c26 7 39 24.5 39 53 0 17.6-4.4 30.1-13.9 39.5-11.7 11.5-22.7 15-50.3 15.7l-18.8.6V202.7l18.8.6c13 .4 20.7 1 25.2 2.2zM282 259.5V332h18l.2-64 .3-64 34 64 34 64H392V187h-18l-.2 58.4-.3 58.4-31-58.4-31-58.4H282v72.5z"/></svg>